<svg width="24" height="24" viewBox="0 0 24 24" fill="none" xmlns="http://www.w3.org/2000/svg">
<g id="Frame">
<path id="Vector" d="M11.4797 3.49897C11.522 3.3958 11.594 3.30755 11.6866 3.24543C11.7792 3.18331 11.8882 3.15015 11.9997 3.15015C12.1112 3.15015 12.2201 3.18331 12.3127 3.24543C12.4053 3.30755 12.4774 3.3958 12.5197 3.49897L14.6447 8.60997C14.6844 8.70561 14.7498 8.78841 14.8336 8.84928C14.9174 8.91015 15.0164 8.94672 15.1197 8.95497L20.6377 9.39697C21.1367 9.43697 21.3387 10.06 20.9587 10.385L16.7547 13.987C16.6761 14.0542 16.6176 14.1417 16.5855 14.2399C16.5534 14.3382 16.5489 14.4434 16.5727 14.544L17.8577 19.929C17.8835 20.037 17.8767 20.1503 17.8382 20.2545C17.7997 20.3587 17.7312 20.4491 17.6413 20.5144C17.5514 20.5797 17.4442 20.6168 17.3332 20.6212C17.2222 20.6256 17.1124 20.597 17.0177 20.539L12.2927 17.654C12.2044 17.6002 12.103 17.5717 11.9997 17.5717C11.8963 17.5717 11.7949 17.6002 11.7067 17.654L6.98166 20.54C6.88692 20.598 6.77712 20.6266 6.66612 20.6222C6.55512 20.6178 6.44791 20.5807 6.35803 20.5154C6.26815 20.4501 6.19962 20.3597 6.16111 20.2555C6.1226 20.1513 6.11584 20.038 6.14166 19.93L7.42666 14.544C7.45049 14.4434 7.44611 14.3381 7.414 14.2399C7.38189 14.1416 7.3233 14.0541 7.24466 13.987L3.04066 10.385C2.95648 10.3126 2.89557 10.2169 2.86561 10.11C2.83565 10.0031 2.83797 9.88971 2.87228 9.78412C2.90659 9.67852 2.97135 9.58543 3.05843 9.51654C3.1455 9.44766 3.25101 9.40605 3.36166 9.39697L8.87966 8.95497C8.98291 8.94672 9.08188 8.91015 9.16569 8.84928C9.2495 8.78841 9.31488 8.70561 9.35466 8.60997L11.4797 3.49897Z" fill="#FFC107" stroke="#FFC107" stroke-width="1.5" stroke-linecap="round" stroke-linejoin="round"/>
</g>
</svg>
